<?xml version="1.0" encoding="UTF-8" standalone="no"?>
<!DOCTYPE svg PUBLIC "-//W3C//DTD SVG 1.1//EN"
 "http://www.w3.org/Graphics/SVG/1.1/DTD/svg11.dtd">
<!-- Generated by graphviz version 2.26.3 (20100126.1600)
 -->
<!-- Title: G Pages: 1 -->
<svg width="1160pt" height="2346pt"
 viewBox="0.00 0.00 1160.00 2346.00" xmlns="http://www.w3.org/2000/svg" xmlns:xlink="http://www.w3.org/1999/xlink">
<g id="graph1" class="graph" transform="scale(1 1) rotate(0) translate(4 2342)">
<title>G</title>
<polygon fill="white" stroke="white" points="-4,5 -4,-2342 1157,-2342 1157,5 -4,5"/>
<g id="graph2" class="cluster"><title>cluster_Global</title>
<polyline fill="none" stroke="gray" points="110,-244 1132,-244 "/>
<path fill="none" stroke="gray" d="M1132,-244C1138,-244 1144,-250 1144,-256"/>
<polyline fill="none" stroke="gray" points="1144,-256 1144,-2318 "/>
<path fill="none" stroke="gray" d="M1144,-2318C1144,-2324 1138,-2330 1132,-2330"/>
<polyline fill="none" stroke="gray" points="1132,-2330 110,-2330 "/>
<path fill="none" stroke="gray" d="M110,-2330C104,-2330 98,-2324 98,-2318"/>
<polyline fill="none" stroke="gray" points="98,-2318 98,-256 "/>
<path fill="none" stroke="gray" d="M98,-256C98,-250 104,-244 110,-244"/>
<text text-anchor="middle" x="621" y="-2316.1" font-family="Times Roman,serif" font-size="11.00" fill="gray">Global</text>
</g>
<g id="graph3" class="cluster"><title>cluster_\OCA</title>
<polyline fill="none" stroke="gray" points="118,-252 1124,-252 "/>
<path fill="none" stroke="gray" d="M1124,-252C1130,-252 1136,-258 1136,-264"/>
<polyline fill="none" stroke="gray" points="1136,-264 1136,-2288 "/>
<path fill="none" stroke="gray" d="M1136,-2288C1136,-2294 1130,-2300 1124,-2300"/>
<polyline fill="none" stroke="gray" points="1124,-2300 118,-2300 "/>
<path fill="none" stroke="gray" d="M118,-2300C112,-2300 106,-2294 106,-2288"/>
<polyline fill="none" stroke="gray" points="106,-2288 106,-264 "/>
<path fill="none" stroke="gray" d="M106,-264C106,-258 112,-252 118,-252"/>
<text text-anchor="middle" x="621" y="-2286.1" font-family="Times Roman,serif" font-size="11.00" fill="gray">OCA</text>
</g>
<g id="graph4" class="cluster"><title>cluster_\OCA\Gallery</title>
<polyline fill="none" stroke="gray" points="126,-260 1116,-260 "/>
<path fill="none" stroke="gray" d="M1116,-260C1122,-260 1128,-266 1128,-272"/>
<polyline fill="none" stroke="gray" points="1128,-272 1128,-2258 "/>
<path fill="none" stroke="gray" d="M1128,-2258C1128,-2264 1122,-2270 1116,-2270"/>
<polyline fill="none" stroke="gray" points="1116,-2270 126,-2270 "/>
<path fill="none" stroke="gray" d="M126,-2270C120,-2270 114,-2264 114,-2258"/>
<polyline fill="none" stroke="gray" points="114,-2258 114,-272 "/>
<path fill="none" stroke="gray" d="M114,-272C114,-266 120,-260 126,-260"/>
<text text-anchor="middle" x="621" y="-2256.1" font-family="Times Roman,serif" font-size="11.00" fill="gray">Gallery</text>
</g>
<g id="graph5" class="cluster"><title>cluster_\OCA\Gallery\AppInfo</title>
<polyline fill="none" stroke="gray" points="943,-974 1027,-974 "/>
<path fill="none" stroke="gray" d="M1027,-974C1033,-974 1039,-980 1039,-986"/>
<polyline fill="none" stroke="gray" points="1039,-986 1039,-1036 "/>
<path fill="none" stroke="gray" d="M1039,-1036C1039,-1042 1033,-1048 1027,-1048"/>
<polyline fill="none" stroke="gray" points="1027,-1048 943,-1048 "/>
<path fill="none" stroke="gray" d="M943,-1048C937,-1048 931,-1042 931,-1036"/>
<polyline fill="none" stroke="gray" points="931,-1036 931,-986 "/>
<path fill="none" stroke="gray" d="M931,-986C931,-980 937,-974 943,-974"/>
<text text-anchor="middle" x="985" y="-1034.1" font-family="Times Roman,serif" font-size="11.00" fill="gray">AppInfo</text>
</g>
<g id="graph6" class="cluster"><title>cluster_\OCA\Gallery\Config</title>
<polyline fill="none" stroke="gray" points="930,-1056 1040,-1056 "/>
<path fill="none" stroke="gray" d="M1040,-1056C1046,-1056 1052,-1062 1052,-1068"/>
<polyline fill="none" stroke="gray" points="1052,-1068 1052,-1226 "/>
<path fill="none" stroke="gray" d="M1052,-1226C1052,-1232 1046,-1238 1040,-1238"/>
<polyline fill="none" stroke="gray" points="1040,-1238 930,-1238 "/>
<path fill="none" stroke="gray" d="M930,-1238C924,-1238 918,-1232 918,-1226"/>
<polyline fill="none" stroke="gray" points="918,-1226 918,-1068 "/>
<path fill="none" stroke="gray" d="M918,-1068C918,-1062 924,-1056 930,-1056"/>
<text text-anchor="middle" x="985" y="-1224.1" font-family="Times Roman,serif" font-size="11.00" fill="gray">Config</text>
</g>
<g id="graph7" class="cluster"><title>cluster_\OCA\Gallery\Controller</title>
<polyline fill="none" stroke="gray" points="540,-1382 1067,-1382 "/>
<path fill="none" stroke="gray" d="M1067,-1382C1073,-1382 1079,-1388 1079,-1394"/>
<polyline fill="none" stroke="gray" points="1079,-1394 1079,-2038 "/>
<path fill="none" stroke="gray" d="M1079,-2038C1079,-2044 1073,-2050 1067,-2050"/>
<polyline fill="none" stroke="gray" points="1067,-2050 540,-2050 "/>
<path fill="none" stroke="gray" d="M540,-2050C534,-2050 528,-2044 528,-2038"/>
<polyline fill="none" stroke="gray" points="528,-2038 528,-1394 "/>
<path fill="none" stroke="gray" d="M528,-1394C528,-1388 534,-1382 540,-1382"/>
<text text-anchor="middle" x="803.5" y="-2036.1" font-family="Times Roman,serif" font-size="11.00" fill="gray">Controller</text>
</g>
<g id="graph8" class="cluster"><title>cluster_\OCA\Gallery\Environment</title>
<polyline fill="none" stroke="gray" points="530,-1246 1057,-1246 "/>
<path fill="none" stroke="gray" d="M1057,-1246C1063,-1246 1069,-1252 1069,-1258"/>
<polyline fill="none" stroke="gray" points="1069,-1258 1069,-1362 "/>
<path fill="none" stroke="gray" d="M1069,-1362C1069,-1368 1063,-1374 1057,-1374"/>
<polyline fill="none" stroke="gray" points="1057,-1374 530,-1374 "/>
<path fill="none" stroke="gray" d="M530,-1374C524,-1374 518,-1368 518,-1362"/>
<polyline fill="none" stroke="gray" points="518,-1362 518,-1258 "/>
<path fill="none" stroke="gray" d="M518,-1258C518,-1252 524,-1246 530,-1246"/>
<text text-anchor="middle" x="793.5" y="-1360.1" font-family="Times Roman,serif" font-size="11.00" fill="gray">Environment</text>
</g>
<g id="graph9" class="cluster"><title>cluster_\OCA\Gallery\Http</title>
<polyline fill="none" stroke="gray" points="937,-892 1033,-892 "/>
<path fill="none" stroke="gray" d="M1033,-892C1039,-892 1045,-898 1045,-904"/>
<polyline fill="none" stroke="gray" points="1045,-904 1045,-954 "/>
<path fill="none" stroke="gray" d="M1045,-954C1045,-960 1039,-966 1033,-966"/>
<polyline fill="none" stroke="gray" points="1033,-966 937,-966 "/>
<path fill="none" stroke="gray" d="M937,-966C931,-966 925,-960 925,-954"/>
<polyline fill="none" stroke="gray" points="925,-954 925,-904 "/>
<path fill="none" stroke="gray" d="M925,-904C925,-898 931,-892 937,-892"/>
<text text-anchor="middle" x="985" y="-952.1" font-family="Times Roman,serif" font-size="11.00" fill="gray">Http</text>
</g>
<g id="graph10" class="cluster"><title>cluster_\OCA\Gallery\Middleware</title>
<polyline fill="none" stroke="gray" points="546,-2058 1064,-2058 "/>
<path fill="none" stroke="gray" d="M1064,-2058C1070,-2058 1076,-2064 1076,-2070"/>
<polyline fill="none" stroke="gray" points="1076,-2070 1076,-2228 "/>
<path fill="none" stroke="gray" d="M1076,-2228C1076,-2234 1070,-2240 1064,-2240"/>
<polyline fill="none" stroke="gray" points="1064,-2240 546,-2240 "/>
<path fill="none" stroke="gray" d="M546,-2240C540,-2240 534,-2234 534,-2228"/>
<polyline fill="none" stroke="gray" points="534,-2228 534,-2070 "/>
<path fill="none" stroke="gray" d="M534,-2070C534,-2064 540,-2058 546,-2058"/>
<text text-anchor="middle" x="805" y="-2226.1" font-family="Times Roman,serif" font-size="11.00" fill="gray">Middleware</text>
</g>
<g id="graph11" class="cluster"><title>cluster_\OCA\Gallery\Preview</title>
<polyline fill="none" stroke="gray" points="957,-810 1013,-810 "/>
<path fill="none" stroke="gray" d="M1013,-810C1019,-810 1025,-816 1025,-822"/>
<polyline fill="none" stroke="gray" points="1025,-822 1025,-872 "/>
<path fill="none" stroke="gray" d="M1025,-872C1025,-878 1019,-884 1013,-884"/>
<polyline fill="none" stroke="gray" points="1013,-884 957,-884 "/>
<path fill="none" stroke="gray" d="M957,-884C951,-884 945,-878 945,-872"/>
<polyline fill="none" stroke="gray" points="945,-872 945,-822 "/>
<path fill="none" stroke="gray" d="M945,-822C945,-816 951,-810 957,-810"/>
<text text-anchor="middle" x="985" y="-870.1" font-family="Times Roman,serif" font-size="11.00" fill="gray">Preview</text>
</g>
<g id="graph12" class="cluster"><title>cluster_\OCA\Gallery\Service</title>
<polyline fill="none" stroke="gray" points="134,-350 1108,-350 "/>
<path fill="none" stroke="gray" d="M1108,-350C1114,-350 1120,-356 1120,-362"/>
<polyline fill="none" stroke="gray" points="1120,-362 1120,-790 "/>
<path fill="none" stroke="gray" d="M1120,-790C1120,-796 1114,-802 1108,-802"/>
<polyline fill="none" stroke="gray" points="1108,-802 134,-802 "/>
<path fill="none" stroke="gray" d="M134,-802C128,-802 122,-796 122,-790"/>
<polyline fill="none" stroke="gray" points="122,-790 122,-362 "/>
<path fill="none" stroke="gray" d="M122,-362C122,-356 128,-350 134,-350"/>
<text text-anchor="middle" x="621" y="-788.1" font-family="Times Roman,serif" font-size="11.00" fill="gray">Service</text>
</g>
<g id="graph13" class="cluster"><title>cluster_\OCA\Gallery\Utility</title>
<polyline fill="none" stroke="gray" points="943,-268 1027,-268 "/>
<path fill="none" stroke="gray" d="M1027,-268C1033,-268 1039,-274 1039,-280"/>
<polyline fill="none" stroke="gray" points="1039,-280 1039,-330 "/>
<path fill="none" stroke="gray" d="M1039,-330C1039,-336 1033,-342 1027,-342"/>
<polyline fill="none" stroke="gray" points="1027,-342 943,-342 "/>
<path fill="none" stroke="gray" d="M943,-342C937,-342 931,-336 931,-330"/>
<polyline fill="none" stroke="gray" points="931,-330 931,-280 "/>
<path fill="none" stroke="gray" d="M931,-280C931,-274 937,-268 943,-268"/>
<text text-anchor="middle" x="985" y="-328.1" font-family="Times Roman,serif" font-size="11.00" fill="gray">Utility</text>
</g>
<!-- \\OCA\\Gallery\\AppInfo\\Application -->
<g id="node5" class="node"><title>\\OCA\\Gallery\\AppInfo\\Application</title>
<polygon fill="none" stroke="black" points="1030,-1018 940,-1018 940,-982 1030,-982 1030,-1018"/>
<text text-anchor="middle" x="985" y="-997.1" font-family="Courier,monospace" font-size="11.00">Application</text>
</g>
<!-- \\OCP\\AppFramework\\App -->
<g id="node56" class="node"><title>\\OCP\\AppFramework\\App</title>
<ellipse fill="none" stroke="black" cx="602" cy="-126" rx="135.057" ry="18.3848"/>
<text text-anchor="middle" x="602" y="-122.4" font-family="Times Roman,serif" font-size="14.00" fill="gray">\OCP\AppFramework\App</text>
</g>
<!-- \\OCA\\Gallery\\AppInfo\\Application&#45;&gt;\\OCP\\AppFramework\\App -->
<g id="edge14" class="edge"><title>\\OCA\\Gallery\\AppInfo\\Application&#45;&gt;\\OCP\\AppFramework\\App</title>
<path fill="none" stroke="black" d="M939.19,-1001.67C911.484,-1000.04 877.798,-992.865 858,-970 739.42,-833.051 908.619,-291.344 786,-158 774.913,-145.943 761.037,-137.399 745.905,-131.45"/>
<polygon fill="none" stroke="black" points="746.929,-128.1 736.334,-128.073 744.6,-134.701 746.929,-128.1"/>
</g>
<!-- \\OCA\\Gallery\\Config\\ConfigException -->
<g id="node7" class="node"><title>\\OCA\\Gallery\\Config\\ConfigException</title>
<polygon fill="none" stroke="black" points="1044,-1208 926,-1208 926,-1172 1044,-1172 1044,-1208"/>
<text text-anchor="middle" x="985" y="-1187.1" font-family="Courier,monospace" font-size="11.00">ConfigException</text>
</g>
<!-- \\Exception -->
<g id="node58" class="node"><title>\\Exception</title>
<ellipse fill="none" stroke="black" cx="173" cy="-110" rx="73.0388" ry="18.3848"/>
<text text-anchor="middle" x="173" y="-106.4" font-family="Times Roman,serif" font-size="14.00" fill="gray">TEHxception</text>
</g>
<!-- \\OCA\\Gallery\\Config\\ConfigException&#45;&gt;\\Exception -->
<g id="edge16" class="edge"><title>\\OCA\\Gallery\\Config\\ConfigException&#45;&gt;\\Exception</title>
<path fill="none" stroke="black" d="M925.742,-1192.07C901.222,-1189.63 874.676,-1182.1 858,-1163 715.569,-999.827 936.92,-346.355 786,-191 728.715,-132.031 499.152,-166.161 418,-153 385.642,-147.752 378.211,-143.086 346,-137 313.662,-130.89 277.736,-125.119 247.04,-120.493"/>
<polygon fill="none" stroke="black" points="247.25,-116.986 236.843,-118.969 246.216,-123.909 247.25,-116.986"/>
</g>
<!-- \\OCA\\Gallery\\Config\\ConfigParser -->
<g id="node8" class="node"><title>\\OCA\\Gallery\\Config\\ConfigParser</title>
<polygon fill="none" stroke="black" points="1034,-1154 936,-1154 936,-1118 1034,-1118 1034,-1154"/>
<text text-anchor="middle" x="985" y="-1133.1" font-family="Courier,monospace" font-size="11.00">ConfigParser</text>
</g>
<!-- \\OCA\\Gallery\\Config\\ConfigValidator -->
<g id="node9" class="node"><title>\\OCA\\Gallery\\Config\\ConfigValidator</title>
<polygon fill="none" stroke="black" points="1044,-1100 926,-1100 926,-1064 1044,-1064 1044,-1100"/>
<text text-anchor="middle" x="985" y="-1079.1" font-family="Courier,monospace" font-size="11.00">ConfigValidator</text>
</g>
<!-- \\OCA\\Gallery\\Controller\\ConfigApiController -->
<g id="node11" class="node"><title>\\OCA\\Gallery\\Controller\\ConfigApiController</title>
<polygon fill="none" stroke="black" points="1057,-1804 913,-1804 913,-1768 1057,-1768 1057,-1804"/>
<text text-anchor="middle" x="985" y="-1783.1" font-family="Courier,monospace" font-size="11.00">ConfigApiController</text>
</g>
<!-- \\OCP\\AppFramework\\ApiController -->
<g id="node60" class="node"><title>\\OCP\\AppFramework\\ApiController</title>
<ellipse fill="none" stroke="black" cx="602" cy="-218" rx="179.813" ry="18.3848"/>
<text text-anchor="middle" x="602" y="-214.4" font-family="Times Roman,serif" font-size="14.00" fill="gray">\OCP\AppFramework\ApiController</text>
</g>
<!-- \\OCA\\Gallery\\Controller\\ConfigApiController&#45;&gt;\\OCP\\AppFramework\\ApiController -->
<g id="edge18" class="edge"><title>\\OCA\\Gallery\\Controller\\ConfigApiController&#45;&gt;\\OCP\\AppFramework\\ApiController</title>
<path fill="none" stroke="black" d="M912.29,-1786.46C891.835,-1782.81 871.508,-1774.88 858,-1759 750.335,-1632.4 891.073,-393.762 786,-265 774.935,-251.44 760.548,-241.483 744.692,-234.218"/>
<polygon fill="none" stroke="black" points="745.776,-230.877 735.2,-230.244 743.073,-237.334 745.776,-230.877"/>
</g>
<!-- \\OCA\\Gallery\\Controller\\ConfigController -->
<g id="node12" class="node"><title>\\OCA\\Gallery\\Controller\\ConfigController</title>
<polygon fill="none" stroke="black" points="664,-1959 540,-1959 540,-1923 664,-1923 664,-1959"/>
<text text-anchor="middle" x="602" y="-1938.1" font-family="Courier,monospace" font-size="11.00">ConfigController</text>
</g>
<!-- \\OCP\\AppFramework\\Controller -->
<g id="node62" class="node"><title>\\OCP\\AppFramework\\Controller</title>
<ellipse fill="none" stroke="black" cx="173" cy="-164" rx="164.756" ry="18.3848"/>
<text text-anchor="middle" x="173" y="-160.4" font-family="Times Roman,serif" font-size="14.00" fill="gray">\OCP\AppFramework\Controller</text>
</g>
<!-- \\OCA\\Gallery\\Controller\\ConfigController&#45;&gt;\\OCP\\AppFramework\\Controller -->
<g id="edge20" class="edge"><title>\\OCA\\Gallery\\Controller\\ConfigController&#45;&gt;\\OCP\\AppFramework\\Controller</title>
<path fill="none" stroke="black" d="M539.286,-1928.52C497.425,-1916.64 445.235,-1894.21 418,-1853 316.087,-1698.79 469.214,-328.783 346,-191 341.235,-185.671 335.886,-181.094 330.099,-177.175"/>
<polygon fill="none" stroke="black" points="331.699,-174.052 321.327,-171.893 328.088,-180.049 331.699,-174.052"/>
</g>
<!-- \\OCA\\Gallery\\Controller\\ConfigPublicController -->
<g id="node13" class="node"><title>\\OCA\\Gallery\\Controller\\ConfigPublicController</title>
<polygon fill="none" stroke="black" points="1067,-2020 903,-2020 903,-1984 1067,-1984 1067,-2020"/>
<text text-anchor="middle" x="985" y="-1999.1" font-family="Courier,monospace" font-size="11.00">ConfigPublicController</text>
</g>
<!-- \\OCA\\Gallery\\Controller\\ConfigPublicController&#45;&gt;\\OCA\\Gallery\\Controller\\ConfigController -->
<g id="edge22" class="edge"><title>\\OCA\\Gallery\\Controller\\ConfigPublicController&#45;&gt;\\OCA\\Gallery\\Controller\\ConfigController</title>
<path fill="none" stroke="black" d="M902.366,-1988.84C834.631,-1978.05 739.684,-1962.93 674.783,-1952.59"/>
<polygon fill="none" stroke="black" points="675.059,-1949.09 664.633,-1950.98 673.958,-1956 675.059,-1949.09"/>
</g>
<!-- \\OCA\\Gallery\\Controller\\FilesApiController -->
<g id="node14" class="node"><title>\\OCA\\Gallery\\Controller\\FilesApiController</title>
<polygon fill="none" stroke="black" points="1054,-1750 916,-1750 916,-1714 1054,-1714 1054,-1750"/>
<text text-anchor="middle" x="985" y="-1729.1" font-family="Courier,monospace" font-size="11.00">FilesApiController</text>
</g>
<!-- \\OCA\\Gallery\\Controller\\FilesApiController&#45;&gt;\\OCP\\AppFramework\\ApiController -->
<g id="edge24" class="edge"><title>\\OCA\\Gallery\\Controller\\FilesApiController&#45;&gt;\\OCP\\AppFramework\\ApiController</title>
<path fill="none" stroke="black" d="M915.956,-1733.06C894.295,-1729.71 872.326,-1721.82 858,-1705 650.215,-1461.11 988.791,-513.056 786,-265 774.923,-251.45 760.529,-241.499 744.669,-234.237"/>
<polygon fill="none" stroke="black" points="745.751,-230.896 735.175,-230.264 743.049,-237.353 745.751,-230.896"/>
</g>
<!-- \\OCA\\Gallery\\Controller\\FilesController -->
<g id="node15" class="node"><title>\\OCA\\Gallery\\Controller\\FilesController</title>
<polygon fill="none" stroke="black" points="661,-1844 543,-1844 543,-1808 661,-1808 661,-1844"/>
<text text-anchor="middle" x="602" y="-1823.1" font-family="Courier,monospace" font-size="11.00">FilesController</text>
</g>
<!-- \\OCA\\Gallery\\Controller\\FilesController&#45;&gt;\\OCP\\AppFramework\\Controller -->
<g id="edge26" class="edge"><title>\\OCA\\Gallery\\Controller\\FilesController&#45;&gt;\\OCP\\AppFramework\\Controller</title>
<path fill="none" stroke="black" d="M563.972,-1807.94C519.968,-1784.73 449.526,-1739.92 418,-1678 342.953,-1530.59 456.579,-314.023 346,-191 341.221,-185.684 335.861,-181.116 330.066,-177.205"/>
<polygon fill="none" stroke="black" points="331.657,-174.078 321.282,-171.933 328.055,-180.08 331.657,-174.078"/>
</g>
<!-- \\OCA\\Gallery\\Controller\\FilesPublicController -->
<g id="node16" class="node"><title>\\OCA\\Gallery\\Controller\\FilesPublicController</title>
<polygon fill="none" stroke="black" points="1064,-1966 906,-1966 906,-1930 1064,-1930 1064,-1966"/>
<text text-anchor="middle" x="985" y="-1945.1" font-family="Courier,monospace" font-size="11.00">FilesPublicController</text>
</g>
<!-- \\OCA\\Gallery\\Controller\\FilesPublicController&#45;&gt;\\OCA\\Gallery\\Controller\\FilesController -->
<g id="edge28" class="edge"><title>\\OCA\\Gallery\\Controller\\FilesPublicController&#45;&gt;\\OCA\\Gallery\\Controller\\FilesController</title>
<path fill="none" stroke="black" d="M905.968,-1933.07C889.984,-1929.52 873.37,-1925.46 858,-1921 786.144,-1900.15 705.585,-1868.9 654.366,-1848"/>
<polygon fill="none" stroke="black" points="655.419,-1844.65 644.839,-1844.09 652.763,-1851.12 655.419,-1844.65"/>
</g>
<!-- \\OCA\\Gallery\\Controller\\PageController -->
<g id="node17" class="node"><title>\\OCA\\Gallery\\Controller\\PageController</title>
<polygon fill="none" stroke="black" points="1040,-1858 930,-1858 930,-1822 1040,-1822 1040,-1858"/>
<text text-anchor="middle" x="985" y="-1837.1" font-family="Courier,monospace" font-size="11.00">PageController</text>
</g>
<!-- \\OCA\\Gallery\\Controller\\PageController&#45;&gt;\\OCP\\AppFramework\\Controller -->
<g id="edge30" class="edge"><title>\\OCA\\Gallery\\Controller\\PageController&#45;&gt;\\OCP\\AppFramework\\Controller</title>
<path fill="none" stroke="black" d="M929.428,-1842.6C903.811,-1840.64 875.314,-1833.34 858,-1813 646.442,-1564.45 990.213,-600.615 786,-346 679.884,-213.694 570.298,-319.638 418,-245 382.082,-227.397 382.855,-206.546 346,-191 333.717,-185.819 320.565,-181.62 307.202,-178.22"/>
<polygon fill="none" stroke="black" points="307.985,-174.809 297.445,-175.883 306.354,-181.616 307.985,-174.809"/>
</g>
<!-- \\OCA\\Gallery\\Controller\\PreviewApiController -->
<g id="node18" class="node"><title>\\OCA\\Gallery\\Controller\\PreviewApiController</title>
<polygon fill="none" stroke="black" points="1061,-1696 909,-1696 909,-1660 1061,-1660 1061,-1696"/>
<text text-anchor="middle" x="985" y="-1675.1" font-family="Courier,monospace" font-size="11.00">PreviewApiController</text>
</g>
<!-- \\OCA\\Gallery\\Controller\\PreviewApiController&#45;&gt;\\OCP\\AppFramework\\ApiController -->
<g id="edge32" class="edge"><title>\\OCA\\Gallery\\Controller\\PreviewApiController&#45;&gt;\\OCP\\AppFramework\\ApiController</title>
<path fill="none" stroke="black" d="M908.681,-1677.74C889.479,-1673.81 870.733,-1665.92 858,-1651 657.759,-1416.43 981.438,-503.588 786,-265 774.91,-251.461 760.508,-241.516 744.644,-234.257"/>
<polygon fill="none" stroke="black" points="745.725,-230.915 735.149,-230.286 743.024,-237.373 745.725,-230.915"/>
</g>
<!-- \\OCA\\Gallery\\Controller\\PreviewController -->
<g id="node19" class="node"><title>\\OCA\\Gallery\\Controller\\PreviewController</title>
<polygon fill="none" stroke="black" points="667,-1669 537,-1669 537,-1633 667,-1633 667,-1669"/>
<text text-anchor="middle" x="602" y="-1648.1" font-family="Courier,monospace" font-size="11.00">PreviewController</text>
</g>
<!-- \\OCA\\Gallery\\Controller\\PreviewController&#45;&gt;\\OCP\\AppFramework\\Controller -->
<g id="edge34" class="edge"><title>\\OCA\\Gallery\\Controller\\PreviewController&#45;&gt;\\OCP\\AppFramework\\Controller</title>
<path fill="none" stroke="black" d="M584.418,-1632.76C545.902,-1591.46 454.606,-1485.99 418,-1378 375.581,-1252.86 434.927,-288.728 346,-191 341.189,-185.713 335.802,-181.169 329.986,-177.277"/>
<polygon fill="none" stroke="black" points="331.557,-174.139 321.174,-172.03 327.975,-180.154 331.557,-174.139"/>
</g>
<!-- \\OCA\\Gallery\\Controller\\PreviewPublicController -->
<g id="node20" class="node"><title>\\OCA\\Gallery\\Controller\\PreviewPublicController</title>
<polygon fill="none" stroke="black" points="1071,-1912 899,-1912 899,-1876 1071,-1876 1071,-1912"/>
<text text-anchor="middle" x="985" y="-1891.1" font-family="Courier,monospace" font-size="11.00">PreviewPublicController</text>
</g>
<!-- \\OCA\\Gallery\\Controller\\PreviewPublicController&#45;&gt;\\OCA\\Gallery\\Controller\\PreviewController -->
<g id="edge36" class="edge"><title>\\OCA\\Gallery\\Controller\\PreviewPublicController&#45;&gt;\\OCA\\Gallery\\Controller\\PreviewController</title>
<path fill="none" stroke="black" d="M898.731,-1882.35C884.653,-1878.58 870.576,-1873.6 858,-1867 819.023,-1846.55 819.175,-1827.93 786,-1799 734.005,-1753.66 670.864,-1703.98 633.696,-1675.26"/>
<polygon fill="none" stroke="black" points="635.78,-1672.44 625.724,-1669.11 631.506,-1677.99 635.78,-1672.44"/>
</g>
<!-- \\OCA\\Gallery\\Controller\\Config -->
<g id="node21" class="node"><title>\\OCA\\Gallery\\Controller\\Config</title>
<polygon fill="none" stroke="black" points="1013,-1642 957,-1642 957,-1606 1013,-1606 1013,-1642"/>
<text text-anchor="middle" x="985" y="-1621.1" font-family="Courier,monospace" font-size="11.00">Config</text>
</g>
<!-- \\OCA\\Gallery\\Controller\\Files -->
<g id="node22" class="node"><title>\\OCA\\Gallery\\Controller\\Files</title>
<polygon fill="none" stroke="black" points="1012,-1588 958,-1588 958,-1552 1012,-1552 1012,-1588"/>
<text text-anchor="middle" x="985" y="-1567.1" font-family="Courier,monospace" font-size="11.00">Files</text>
</g>
<!-- \\OCA\\Gallery\\Controller\\HttpError -->
<g id="node23" class="node"><title>\\OCA\\Gallery\\Controller\\HttpError</title>
<polygon fill="none" stroke="black" points="1023,-1534 947,-1534 947,-1498 1023,-1498 1023,-1534"/>
<text text-anchor="middle" x="985" y="-1513.1" font-family="Courier,monospace" font-size="11.00">HttpError</text>
</g>
<!-- \\OCA\\Gallery\\Controller\\PathManipulation -->
<g id="node24" class="node"><title>\\OCA\\Gallery\\Controller\\PathManipulation</title>
<polygon fill="none" stroke="black" points="1047,-1480 923,-1480 923,-1444 1047,-1444 1047,-1480"/>
<text text-anchor="middle" x="985" y="-1459.1" font-family="Courier,monospace" font-size="11.00">PathManipulation</text>
</g>
<!-- \\OCA\\Gallery\\Controller\\Preview -->
<g id="node25" class="node"><title>\\OCA\\Gallery\\Controller\\Preview</title>
<polygon fill="none" stroke="black" points="1017,-1426 953,-1426 953,-1390 1017,-1390 1017,-1426"/>
<text text-anchor="middle" x="985" y="-1405.1" font-family="Courier,monospace" font-size="11.00">Preview</text>
</g>
<!-- \\OCA\\Gallery\\Environment\\Environment -->
<g id="node27" class="node"><title>\\OCA\\Gallery\\Environment\\Environment</title>
<polygon fill="none" stroke="black" points="1030,-1344 940,-1344 940,-1308 1030,-1308 1030,-1344"/>
<text text-anchor="middle" x="985" y="-1323.1" font-family="Courier,monospace" font-size="11.00">Environment</text>
</g>
<!-- \\OCA\\Gallery\\Environment\\EnvironmentException -->
<g id="node28" class="node"><title>\\OCA\\Gallery\\Environment\\EnvironmentException</title>
<polygon fill="none" stroke="black" points="678,-1290 526,-1290 526,-1254 678,-1254 678,-1290"/>
<text text-anchor="middle" x="602" y="-1269.1" font-family="Courier,monospace" font-size="11.00">EnvironmentException</text>
</g>
<!-- \\OCA\\Gallery\\Environment\\EnvironmentException&#45;&gt;\\Exception -->
<g id="edge38" class="edge"><title>\\OCA\\Gallery\\Environment\\EnvironmentException&#45;&gt;\\Exception</title>
<path fill="none" stroke="black" d="M592.796,-1253.94C562.116,-1192.85 462.749,-987.576 418,-806 382.22,-660.819 449.184,-245.217 346,-137 321.762,-111.579 284.16,-103.606 250.195,-102.508"/>
<polygon fill="none" stroke="black" points="249.834,-99.0033 239.79,-102.377 249.745,-106.003 249.834,-99.0033"/>
</g>
<!-- \\OCA\\Gallery\\Environment\\NotFoundEnvException -->
<g id="node29" class="node"><title>\\OCA\\Gallery\\Environment\\NotFoundEnvException</title>
<polygon fill="none" stroke="black" points="1061,-1290 909,-1290 909,-1254 1061,-1254 1061,-1290"/>
<text text-anchor="middle" x="985" y="-1269.1" font-family="Courier,monospace" font-size="11.00">NotFoundEnvException</text>
</g>
<!-- \\OCA\\Gallery\\Environment\\NotFoundEnvException&#45;&gt;\\OCA\\Gallery\\Environment\\EnvironmentException -->
<g id="edge40" class="edge"><title>\\OCA\\Gallery\\Environment\\NotFoundEnvException&#45;&gt;\\OCA\\Gallery\\Environment\\EnvironmentException</title>
<path fill="none" stroke="black" d="M908.874,-1272C845.275,-1272 754.608,-1272 688.319,-1272"/>
<polygon fill="none" stroke="black" points="688.31,-1268.5 678.31,-1272 688.31,-1275.5 688.31,-1268.5"/>
</g>
<!-- \\OCA\\Gallery\\Http\\ImageResponse -->
<g id="node31" class="node"><title>\\OCA\\Gallery\\Http\\ImageResponse</title>
<polygon fill="none" stroke="black" points="1037,-936 933,-936 933,-900 1037,-900 1037,-936"/>
<text text-anchor="middle" x="985" y="-915.1" font-family="Courier,monospace" font-size="11.00">ImageResponse</text>
</g>
<!-- \\OCP\\AppFramework\\Http\\Response -->
<g id="node74" class="node"><title>\\OCP\\AppFramework\\Http\\Response</title>
<ellipse fill="none" stroke="black" cx="602" cy="-72" rx="183.848" ry="18.3848"/>
<text text-anchor="middle" x="602" y="-68.4" font-family="Times Roman,serif" font-size="14.00" fill="gray">\OCP\AppFrameworkHttp\Response</text>
</g>
<!-- \\OCA\\Gallery\\Http\\ImageResponse&#45;&gt;\\OCP\\AppFramework\\Http\\Response -->
<g id="edge42" class="edge"><title>\\OCA\\Gallery\\Http\\ImageResponse&#45;&gt;\\OCP\\AppFramework\\Http\\Response</title>
<path fill="none" stroke="black" d="M932.894,-919.19C906.544,-916.853 876.342,-909.129 858,-888 742.582,-755.047 907.044,-226.852 786,-99 781.484,-94.2303 776.524,-90.0481 771.219,-86.3902"/>
<polygon fill="none" stroke="black" points="772.958,-83.3503 762.613,-81.0646 769.275,-89.3029 772.958,-83.3503"/>
</g>
<!-- \\OCA\\Gallery\\Middleware\\CheckException -->
<g id="node33" class="node"><title>\\OCA\\Gallery\\Middleware\\CheckException</title>
<polygon fill="none" stroke="black" points="1040,-2102 930,-2102 930,-2066 1040,-2066 1040,-2102"/>
<text text-anchor="middle" x="985" y="-2081.1" font-family="Courier,monospace" font-size="11.00">CheckException</text>
</g>
<!-- \\OCA\\Gallery\\Middleware\\CheckException&#45;&gt;\\Exception -->
<g id="edge44" class="edge"><title>\\OCA\\Gallery\\Middleware\\CheckException&#45;&gt;\\Exception</title>
<path fill="none" stroke="black" d="M929.242,-2085.25C903.58,-2082.66 875.099,-2074.7 858,-2054 737.022,-1907.56 904.331,-494.585 786,-346 680.342,-213.328 555.51,-344.28 418,-245 371.228,-211.231 394.605,-168.073 346,-137 319.653,-120.157 286.545,-112.49 256.364,-109.345"/>
<polygon fill="none" stroke="black" points="256.527,-105.846 246.256,-108.445 255.906,-112.818 256.527,-105.846"/>
</g>
<!-- \\OCA\\Gallery\\Middleware\\CheckMiddleware -->
<g id="node34" class="node"><title>\\OCA\\Gallery\\Middleware\\CheckMiddleware</title>
<polygon fill="none" stroke="black" points="661,-2156 543,-2156 543,-2120 661,-2120 661,-2156"/>
<text text-anchor="start" x="568" y="-2143.43" font-family="Courier,monospace" font-size="11.00">«abstract»</text>
<text text-anchor="start" x="551" y="-2130.23" font-family="Courier,monospace" font-size="11.00">CheckMiddleware</text>
</g>
<!-- \\OCP\\AppFramework\\Middleware -->
<g id="node77" class="node"><title>\\OCP\\AppFramework\\Middleware</title>
<ellipse fill="none" stroke="black" cx="173" cy="-218" rx="172.034" ry="18.3848"/>
<text text-anchor="middle" x="173" y="-214.4" font-family="Times Roman,serif" font-size="14.00" fill="gray">\OCP\AppFramework\Middleware</text>
</g>
<!-- \\OCA\\Gallery\\Middleware\\CheckMiddleware&#45;&gt;\\OCP\\AppFramework\\Middleware -->
<g id="edge46" class="edge"><title>\\OCA\\Gallery\\Middleware\\CheckMiddleware&#45;&gt;\\OCP\\AppFramework\\Middleware</title>
<path fill="none" stroke="black" d="M542.485,-2127.7C500.163,-2116.99 446.035,-2095.66 418,-2054 311.954,-1896.41 435.052,-513.777 346,-346 319.619,-296.297 264.4,-260.773 223.406,-239.948"/>
<polygon fill="none" stroke="black" points="224.883,-236.774 214.368,-235.475 221.778,-243.047 224.883,-236.774"/>
</g>
<!-- \\OCA\\Gallery\\Middleware\\EnvCheckMiddleware -->
<g id="node35" class="node"><title>\\OCA\\Gallery\\Middleware\\EnvCheckMiddleware</title>
<polygon fill="none" stroke="black" points="1054,-2210 916,-2210 916,-2174 1054,-2174 1054,-2210"/>
<text text-anchor="middle" x="985" y="-2189.1" font-family="Courier,monospace" font-size="11.00">EnvCheckMiddleware</text>
</g>
<!-- \\OCA\\Gallery\\Middleware\\EnvCheckMiddleware&#45;&gt;\\OCA\\Gallery\\Middleware\\CheckMiddleware -->
<g id="edge48" class="edge"><title>\\OCA\\Gallery\\Middleware\\EnvCheckMiddleware&#45;&gt;\\OCA\\Gallery\\Middleware\\CheckMiddleware</title>
<path fill="none" stroke="black" d="M915.642,-2182.22C846.504,-2172.47 740.911,-2157.59 671.666,-2147.82"/>
<polygon fill="none" stroke="black" points="672.112,-2144.35 661.721,-2146.42 671.135,-2151.28 672.112,-2144.35"/>
</g>
<!-- \\OCA\\Gallery\\Middleware\\SharingCheckMiddleware -->
<g id="node36" class="node"><title>\\OCA\\Gallery\\Middleware\\SharingCheckMiddleware</title>
<polygon fill="none" stroke="black" points="1067,-2156 903,-2156 903,-2120 1067,-2120 1067,-2156"/>
<text text-anchor="middle" x="985" y="-2135.1" font-family="Courier,monospace" font-size="11.00">SharingCheckMiddleware</text>
</g>
<!-- \\OCA\\Gallery\\Middleware\\SharingCheckMiddleware&#45;&gt;\\OCA\\Gallery\\Middleware\\CheckMiddleware -->
<g id="edge50" class="edge"><title>\\OCA\\Gallery\\Middleware\\SharingCheckMiddleware&#45;&gt;\\OCA\\Gallery\\Middleware\\CheckMiddleware</title>
<path fill="none" stroke="black" d="M902.366,-2138C833.587,-2138 736.752,-2138 671.804,-2138"/>
<polygon fill="none" stroke="black" points="671.663,-2134.5 661.663,-2138 671.663,-2141.5 671.663,-2134.5"/>
</g>
<!-- \\OCA\\Gallery\\Preview\\Preview -->
<g id="node38" class="node"><title>\\OCA\\Gallery\\Preview\\Preview</title>
<polygon fill="none" stroke="black" points="1017,-854 953,-854 953,-818 1017,-818 1017,-854"/>
<text text-anchor="middle" x="985" y="-833.1" font-family="Courier,monospace" font-size="11.00">Preview</text>
</g>
<!-- \\OCA\\Gallery\\Service\\ConfigService -->
<g id="node40" class="node"><title>\\OCA\\Gallery\\Service\\ConfigService</title>
<polygon fill="none" stroke="black" points="1037,-718 933,-718 933,-682 1037,-682 1037,-718"/>
<text text-anchor="middle" x="985" y="-697.1" font-family="Courier,monospace" font-size="11.00">ConfigService</text>
</g>
<!-- \\OCA\\Gallery\\Service\\FilesService -->
<g id="node42" class="node"><title>\\OCA\\Gallery\\Service\\FilesService</title>
<polygon fill="none" stroke="black" points="651,-664 553,-664 553,-628 651,-628 651,-664"/>
<text text-anchor="start" x="568" y="-651.433" font-family="Courier,monospace" font-size="11.00">«abstract»</text>
<text text-anchor="start" x="561" y="-638.233" font-family="Courier,monospace" font-size="11.00">FilesService</text>
</g>
<!-- \\OCA\\Gallery\\Service\\ConfigService&#45;&gt;\\OCA\\Gallery\\Service\\FilesService -->
<g id="edge52" class="edge"><title>\\OCA\\Gallery\\Service\\ConfigService&#45;&gt;\\OCA\\Gallery\\Service\\FilesService</title>
<path fill="none" stroke="black" d="M932.948,-692.661C862.235,-682.691 736.114,-664.909 661.66,-654.412"/>
<polygon fill="none" stroke="black" points="661.899,-650.911 651.508,-652.98 660.921,-657.842 661.899,-650.911"/>
</g>
<!-- \\OCA\\Gallery\\Service\\DownloadService -->
<g id="node41" class="node"><title>\\OCA\\Gallery\\Service\\DownloadService</title>
<polygon fill="none" stroke="black" points="661,-772 543,-772 543,-736 661,-736 661,-772"/>
<text text-anchor="middle" x="602" y="-751.1" font-family="Courier,monospace" font-size="11.00">DownloadService</text>
</g>
<!-- \\OCA\\Gallery\\Service\\Service -->
<g id="node49" class="node"><title>\\OCA\\Gallery\\Service\\Service</title>
<polygon fill="none" stroke="black" points="215,-718 131,-718 131,-682 215,-682 215,-718"/>
<text text-anchor="start" x="139" y="-705.433" font-family="Courier,monospace" font-size="11.00">«abstract»</text>
<text text-anchor="start" x="149" y="-692.233" font-family="Courier,monospace" font-size="11.00">Service</text>
</g>
<!-- \\OCA\\Gallery\\Service\\DownloadService&#45;&gt;\\OCA\\Gallery\\Service\\Service -->
<g id="edge54" class="edge"><title>\\OCA\\Gallery\\Service\\DownloadService&#45;&gt;\\OCA\\Gallery\\Service\\Service</title>
<path fill="none" stroke="black" d="M542.8,-746.548C458.878,-735.985 306.598,-716.817 226.127,-706.687"/>
<polygon fill="none" stroke="black" points="226.094,-703.156 215.735,-705.379 225.22,-710.101 226.094,-703.156"/>
</g>
<!-- \\OCA\\Gallery\\Service\\FilesService&#45;&gt;\\OCA\\Gallery\\Service\\Service -->
<g id="edge56" class="edge"><title>\\OCA\\Gallery\\Service\\FilesService&#45;&gt;\\OCA\\Gallery\\Service\\Service</title>
<path fill="none" stroke="black" d="M552.369,-652.247C470.854,-662.508 309.347,-682.837 225.806,-693.353"/>
<polygon fill="none" stroke="black" points="225.256,-689.895 215.771,-694.616 226.13,-696.84 225.256,-689.895"/>
</g>
<!-- \\OCA\\Gallery\\Service\\ForbiddenServiceException -->
<g id="node43" class="node"><title>\\OCA\\Gallery\\Service\\ForbiddenServiceException</title>
<polygon fill="none" stroke="black" points="1077,-556 893,-556 893,-520 1077,-520 1077,-556"/>
<text text-anchor="middle" x="985" y="-535.1" font-family="Courier,monospace" font-size="11.00">ForbiddenServiceException</text>
</g>
<!-- \\OCA\\Gallery\\Service\\ServiceException -->
<g id="node50" class="node"><title>\\OCA\\Gallery\\Service\\ServiceException</title>
<polygon fill="none" stroke="black" points="664,-529 540,-529 540,-493 664,-493 664,-529"/>
<text text-anchor="middle" x="602" y="-508.1" font-family="Courier,monospace" font-size="11.00">ServiceException</text>
</g>
<!-- \\OCA\\Gallery\\Service\\ForbiddenServiceException&#45;&gt;\\OCA\\Gallery\\Service\\ServiceException -->
<g id="edge58" class="edge"><title>\\OCA\\Gallery\\Service\\ForbiddenServiceException&#45;&gt;\\OCA\\Gallery\\Service\\ServiceException</title>
<path fill="none" stroke="black" d="M892.286,-531.464C825.388,-526.748 736.341,-520.471 674.592,-516.117"/>
<polygon fill="none" stroke="black" points="674.763,-512.621 664.542,-515.409 674.271,-519.604 674.763,-512.621"/>
</g>
<!-- \\OCA\\Gallery\\Service\\InternalServerErrorServiceException -->
<g id="node44" class="node"><title>\\OCA\\Gallery\\Service\\InternalServerErrorServiceException</title>
<polygon fill="none" stroke="black" points="1111,-502 859,-502 859,-466 1111,-466 1111,-502"/>
<text text-anchor="middle" x="985" y="-481.1" font-family="Courier,monospace" font-size="11.00">InternalServerErrorServiceException</text>
</g>
<!-- \\OCA\\Gallery\\Service\\InternalServerErrorServiceException&#45;&gt;\\OCA\\Gallery\\Service\\ServiceException -->
<g id="edge60" class="edge"><title>\\OCA\\Gallery\\Service\\InternalServerErrorServiceException&#45;&gt;\\OCA\\Gallery\\Service\\ServiceException</title>
<path fill="none" stroke="black" d="M858.264,-492.934C797.309,-497.231 726.43,-502.228 674.685,-505.876"/>
<polygon fill="none" stroke="black" points="674.329,-502.392 664.6,-506.587 674.822,-509.375 674.329,-502.392"/>
</g>
<!-- \\OCA\\Gallery\\Service\\NotFoundServiceException -->
<g id="node45" class="node"><title>\\OCA\\Gallery\\Service\\NotFoundServiceException</title>
<polygon fill="none" stroke="black" points="1074,-610 896,-610 896,-574 1074,-574 1074,-610"/>
<text text-anchor="middle" x="985" y="-589.1" font-family="Courier,monospace" font-size="11.00">NotFoundServiceException</text>
</g>
<!-- \\OCA\\Gallery\\Service\\NotFoundServiceException&#45;&gt;\\OCA\\Gallery\\Service\\ServiceException -->
<g id="edge62" class="edge"><title>\\OCA\\Gallery\\Service\\NotFoundServiceException&#45;&gt;\\OCA\\Gallery\\Service\\ServiceException</title>
<path fill="none" stroke="black" d="M899.524,-573.923C831.93,-559.627 738.6,-539.889 674.596,-526.353"/>
<polygon fill="none" stroke="black" points="675.092,-522.881 664.584,-524.236 673.644,-529.729 675.092,-522.881"/>
</g>
<!-- \\OCA\\Gallery\\Service\\PreviewService -->
<g id="node46" class="node"><title>\\OCA\\Gallery\\Service\\PreviewService</title>
<polygon fill="none" stroke="black" points="657,-718 547,-718 547,-682 657,-682 657,-718"/>
<text text-anchor="middle" x="602" y="-697.1" font-family="Courier,monospace" font-size="11.00">PreviewService</text>
</g>
<!-- \\OCA\\Gallery\\Service\\PreviewService&#45;&gt;\\OCA\\Gallery\\Service\\Service -->
<g id="edge64" class="edge"><title>\\OCA\\Gallery\\Service\\PreviewService&#45;&gt;\\OCA\\Gallery\\Service\\Service</title>
<path fill="none" stroke="black" d="M546.356,-700C463.086,-700 307.152,-700 225.659,-700"/>
<polygon fill="none" stroke="black" points="225.623,-696.5 215.623,-700 225.623,-703.5 225.623,-696.5"/>
</g>
<!-- \\OCA\\Gallery\\Service\\SearchFolderService -->
<g id="node47" class="node"><title>\\OCA\\Gallery\\Service\\SearchFolderService</title>
<polygon fill="none" stroke="black" points="1057,-664 913,-664 913,-628 1057,-628 1057,-664"/>
<text text-anchor="middle" x="985" y="-643.1" font-family="Courier,monospace" font-size="11.00">SearchFolderService</text>
</g>
<!-- \\OCA\\Gallery\\Service\\SearchFolderService&#45;&gt;\\OCA\\Gallery\\Service\\FilesService -->
<g id="edge66" class="edge"><title>\\OCA\\Gallery\\Service\\SearchFolderService&#45;&gt;\\OCA\\Gallery\\Service\\FilesService</title>
<path fill="none" stroke="black" d="M912.059,-646C839.392,-646 729.174,-646 661.591,-646"/>
<polygon fill="none" stroke="black" points="661.531,-642.5 651.531,-646 661.531,-649.5 661.531,-642.5"/>
</g>
<!-- \\OCA\\Gallery\\Service\\SearchMediaService -->
<g id="node48" class="node"><title>\\OCA\\Gallery\\Service\\SearchMediaService</title>
<polygon fill="none" stroke="black" points="1054,-772 916,-772 916,-736 1054,-736 1054,-772"/>
<text text-anchor="middle" x="985" y="-751.1" font-family="Courier,monospace" font-size="11.00">SearchMediaService</text>
</g>
<!-- \\OCA\\Gallery\\Service\\SearchMediaService&#45;&gt;\\OCA\\Gallery\\Service\\FilesService -->
<g id="edge68" class="edge"><title>\\OCA\\Gallery\\Service\\SearchMediaService&#45;&gt;\\OCA\\Gallery\\Service\\FilesService</title>
<path fill="none" stroke="black" d="M915.707,-744.911C896.475,-740.895 875.957,-735.159 858,-727 821.583,-710.453 822.926,-688.378 786,-673 746.633,-656.606 698.907,-649.941 661.928,-647.33"/>
<polygon fill="none" stroke="black" points="661.998,-643.828 651.799,-646.697 661.561,-650.814 661.998,-643.828"/>
</g>
<!-- \\OCA\\Gallery\\Service\\ServiceException&#45;&gt;\\Exception -->
<g id="edge70" class="edge"><title>\\OCA\\Gallery\\Service\\ServiceException&#45;&gt;\\Exception</title>
<path fill="none" stroke="black" d="M539.396,-520.589C499.743,-522.957 450.074,-518.523 418,-489 300.512,-380.854 461.532,-247.232 346,-137 321.185,-113.324 284.639,-105.273 251.523,-103.673"/>
<polygon fill="none" stroke="black" points="251.471,-100.17 241.372,-103.373 251.265,-107.167 251.471,-100.17"/>
</g>
<!-- \\OCA\\Gallery\\Service\\ThumbnailService -->
<g id="node51" class="node"><title>\\OCA\\Gallery\\Service\\ThumbnailService</title>
<polygon fill="none" stroke="black" points="1047,-448 923,-448 923,-412 1047,-412 1047,-448"/>
<text text-anchor="middle" x="985" y="-427.1" font-family="Courier,monospace" font-size="11.00">ThumbnailService</text>
</g>
<!-- \\OCA\\Gallery\\Service\\Base64Encode -->
<g id="node52" class="node"><title>\\OCA\\Gallery\\Service\\Base64Encode</title>
<polygon fill="none" stroke="black" points="1034,-394 936,-394 936,-358 1034,-358 1034,-394"/>
<text text-anchor="middle" x="985" y="-373.1" font-family="Courier,monospace" font-size="11.00">Base64Encode</text>
</g>
<!-- \\OCA\\Gallery\\Utility\\EventSource -->
<g id="node54" class="node"><title>\\OCA\\Gallery\\Utility\\EventSource</title>
<polygon fill="none" stroke="black" points="1030,-312 940,-312 940,-276 1030,-276 1030,-312"/>
<text text-anchor="middle" x="985" y="-291.1" font-family="Courier,monospace" font-size="11.00">EventSource</text>
</g>
<!-- \\OCP\\IEventSource -->
<g id="node91" class="node"><title>\\OCP\\IEventSource</title>
<ellipse fill="none" stroke="black" cx="602" cy="-18" rx="104.151" ry="18.3848"/>
<text text-anchor="middle" x="602" y="-14.4" font-family="Times Roman,serif" font-size="14.00" fill="gray">\OCP\IEventSource</text>
</g>
<!-- \\OCA\\Gallery\\Utility\\EventSource&#45;&gt;\\OCP\\IEventSource -->
<g id="edge72" class="edge"><title>\\OCA\\Gallery\\Utility\\EventSource&#45;&gt;\\OCP\\IEventSource</title>
<path fill="none" stroke="black" stroke-dasharray="1,5" d="M976.506,-275.71C953.476,-228.403 884.866,-101.754 786,-45 764.958,-32.921 740.415,-25.6068 716.239,-21.301"/>
<polygon fill="none" stroke="black" points="716.709,-17.8315 706.278,-19.688 715.59,-24.7415 716.709,-17.8315"/>
</g>
</g>
</svg>
